HIERARCHY
ROOT Hips
{
	OFFSET 0.00000 0.00000 0.00000
	CHANNELS 6 Xposition Yposition Zposition Zrotation Yrotation Xrotation 
	JOINT LHipJoint
	{
		OFFSET 0 0 0
		CHANNELS 3 Zrotation Yrotation Xrotation
		JOINT LeftUpLeg
		{
			OFFSET 1.38280 -1.96574 0.54427
			CHANNELS 3 Zrotation Yrotation Xrotation
			JOINT LeftLeg
			{
				OFFSET 2.72096 -7.47578 0.00000
				CHANNELS 3 Zrotation Yrotation Xrotation
				JOINT LeftFoot
				{
					OFFSET 2.73041 -7.50176 0.00000
					CHANNELS 3 Zrotation Yrotation Xrotation
					JOINT LeftToeBase
					{
						OFFSET 0.16150 -0.44371 2.18031
						CHANNELS 3 Zrotation Yrotation Xrotation
						End Site
						{
							OFFSET 0.00000 -0.00000 1.12127
						}
					}
				}
			}
		}
	}
	JOINT RHipJoint
	{
		OFFSET 0 0 0
		CHANNELS 3 Zrotation Yrotation Xrotation
		JOINT RightUpLeg
		{
			OFFSET -1.57224 -1.96575 0.54427
			CHANNELS 3 Zrotation Yrotation Xrotation
			JOINT RightLeg
			{
				OFFSET -2.95935 -8.13076 0.00000
				CHANNELS 3 Zrotation Yrotation Xrotation
				JOINT RightFoot
				{
					OFFSET -2.52345 -6.93311 0.00000
					CHANNELS 3 Zrotation Yrotation Xrotation
					JOINT RightToeBase
					{
						OFFSET -0.04475 -0.10171 1.86688
						CHANNELS 3 Zrotation Yrotation Xrotation
						End Site
						{
							OFFSET -0.00000 -0.00000 0.95157
						}
					}
				}
			}
		}
	}
	JOINT LowerBack
	{
		OFFSET 0 0 0
		CHANNELS 3 Zrotation Yrotation Xrotation
		JOINT Spine
		{
			OFFSET 0.00669 2.07367 0.09104
			CHANNELS 3 Zrotation Yrotation Xrotation
			JOINT Spine1
			{
				OFFSET -0.00664 2.06198 -0.04732
				CHANNELS 3 Zrotation Yrotation Xrotation
				JOINT Neck
				{
					OFFSET 0 0 0
					CHANNELS 3 Zrotation Yrotation Xrotation
					JOINT Neck1
					{
						OFFSET -0.00021 1.49948 0.16345
						CHANNELS 3 Zrotation Yrotation Xrotation
						JOINT Head
						{
							OFFSET 0.06080 1.50567 -0.26702
							CHANNELS 3 Zrotation Yrotation Xrotation
							End Site
							{
								OFFSET 0.01726 1.56470 -0.11854
							}
						}
					}
				}
				JOINT LeftShoulder
				{
					OFFSET 0 0 0
					CHANNELS 3 Zrotation Yrotation Xrotation
					JOINT LeftArm
					{
						OFFSET 3.14993 0.82932 -0.22488
						CHANNELS 3 Zrotation Yrotation Xrotation
						JOINT LeftForeArm
						{
							OFFSET 5.68236 -0.00000 -0.00000
							CHANNELS 3 Zrotation Yrotation Xrotation
							JOINT LeftHand
							{
								OFFSET 3.17112 -0.00000 0.00000
								CHANNELS 3 Zrotation Yrotation Xrotation
								JOINT LeftFingerBase
								{
									OFFSET 0 0 0
									CHANNELS 3 Zrotation Yrotation Xrotation
									JOINT LeftHandIndex1
									{
										OFFSET 0.63269 -0.00000 0.00000
										CHANNELS 3 Zrotation Yrotation Xrotation
										End Site
										{
											OFFSET 0.51009 -0.00000 0.00000
										}
									}
								}
								JOINT LThumb
								{
									OFFSET 0 0 0
									CHANNELS 3 Zrotation Yrotation Xrotation
									End Site
									{
										OFFSET 0.51788 -0.00000 0.51788
									}
								}
							}
						}
					}
				}
				JOINT RightShoulder
				{
					OFFSET 0 0 0
					CHANNELS 3 Zrotation Yrotation Xrotation
					JOINT RightArm
					{
						OFFSET -3.10571 0.91279 -0.33334
						CHANNELS 3 Zrotation Yrotation Xrotation
						JOINT RightForeArm
						{
							OFFSET -5.87120 -0.00000 -0.00000
							CHANNELS 3 Zrotation Yrotation Xrotation
							JOINT RightHand
							{
								OFFSET -3.37589 -0.00000 0.00000
								CHANNELS 3 Zrotation Yrotation Xrotation
								JOINT RightFingerBase
								{
									OFFSET 0 0 0
									CHANNELS 3 Zrotation Yrotation Xrotation
									JOINT RightHandIndex1
									{
										OFFSET -0.60326 -0.00000 0.00000
										CHANNELS 3 Zrotation Yrotation Xrotation
										End Site
										{
											OFFSET -0.48636 -0.00000 0.00000
										}
									}
								}
								JOINT RThumb
								{
									OFFSET 0 0 0
									CHANNELS 3 Zrotation Yrotation Xrotation
									End Site
									{
										OFFSET -0.49379 -0.00000 0.49379
									}
								}
							}
						}
					}
				}
			}
		}
	}
}
MOTION
Frames: 5
Frame Time: 0.0121212
0.00 0.00 0.00 1416.7200 -85.5215 -305.1200 0.0000 0.0000 0.0000 -7.5413 -12.9215 -76.0858 7.8763 16.0275 52.1158 -0.0406 3.5949 -0.8715 0.0012 -0.2279 -0.6261 0.0000 0.0000 0.0000 9.6750 15.9202 -71.6750 -7.3045 -15.5830 50.0167 -0.1351 -0.4993 6.7822 -1.3882 7.4546 -21.0695 1.2360 1.8923 4.5206 1.2973 2.4401 4.0050 0.5640 1.1869 1.5788 -5.3291 -4.3962 -29.0099 4.6537 -4.9564 16.7870 1.6994 -2.0371 10.3315 0.0000 -0.0000 0.0000 -67.6247 -49.2037 30.4015 79.7696 -59.6008 -51.1521 -0.0000 0.0000 -27.9110 9.3930 21.8445 3.5222 -7.1250 0.0000 -0.0000 -19.4526 51.0480 -2.9951 0.0000 -0.0000 0.0000 71.4578 45.1353 33.9217 -54.5716 54.6808 -29.8661 0.0000 -0.0000 -23.7988 -38.4933 29.9124 -21.6318 7.1250 -0.0000 -0.0000 -4.1766 6.2520 -4.6183
0.00 0.00 0.00 1403.1900 -86.5145 -289.7360 0.0000 0.0000 0.0000 -5.9030 -12.1789 -85.5004 12.7308 18.6828 68.2874 0.5248 -6.6002 -13.0159 0.0684 -1.6877 -4.6432 0.0000 0.0000 0.0000 7.8535 17.6116 -80.8247 -12.3886 -18.5502 67.2155 0.2156 10.6785 -3.3955 -1.3737 7.4173 -20.9576 0.4299 2.0798 3.0507 1.0208 2.6916 3.4367 0.7661 1.3110 1.7879 -5.7502 -4.4010 -29.1467 4.9054 -4.7964 15.3511 1.8795 -1.9692 9.8412 0.0000 0.0000 0.0000 -69.0146 -46.8395 30.5366 65.8850 -57.6844 -39.2782 -0.0000 0.0000 -26.3444 10.4948 23.1460 4.1647 -7.1250 0.0000 -0.0000 -19.0440 52.4630 -3.6042 0.0000 0.0000 0.0000 74.9792 43.4244 35.6915 -45.5310 51.0260 -22.6508 0.0000 -0.0000 -24.2475 -39.5562 29.8068 -22.3220 7.1250 -0.0000 -0.0000 -4.7914 6.5187 -5.3221
0.00 0.00 0.00 1424.8400 -85.7038 -278.3780 0.0000 0.0000 0.0000 10.4120 -18.1281 -103.0686 8.7816 16.6651 55.3317 0.5368 3.5284 -15.5784 1.2583 -7.1110 -20.0445 0.0000 0.0000 0.0000 -10.5667 22.6233 -100.4581 -8.5427 -16.5043 54.4947 -0.1692 1.6109 -7.3745 -0.7531 5.5428 -15.4634 -0.0637 1.3496 11.9617 1.8863 1.7295 3.0478 1.7481 0.8050 -3.5737 -5.4188 -3.1466 -21.1925 5.1389 -3.4897 -3.5256 2.1733 -1.6668 2.3871 -0.0000 -0.0000 0.0000 -76.2401 6.1889 41.0562 15.2887 -24.5468 -3.3450 -0.0000 0.0000 -7.8430 11.0223 29.9173 5.5488 -7.1250 0.0000 -0.0000 -22.7652 58.8828 -7.9849 -0.0000 -0.0000 0.0000 79.5018 3.0445 9.8893 -26.7251 37.9157 -9.3297 0.0000 -0.0000 -1.8347 -34.5961 33.1419 -20.6614 7.1250 -0.0000 -0.0000 -1.2576 8.4330 -1.4287
0.00 0.00 0.00 1417.1400 -88.4039 -262.9350 0.0000 0.0000 0.0000 4.8443 -17.2362 -105.7505 6.4138 14.8177 46.6208 0.1527 4.6565 -10.5577 0.5696 -4.8336 -13.4345 0.0000 0.0000 0.0000 -17.1911 21.4314 -102.1798 -5.6449 -14.0752 43.5396 -0.1049 -2.7478 -7.7705 -1.2947 7.2094 -20.3372 0.1946 1.9316 15.2833 2.2294 2.5318 3.1471 1.7549 1.1753 -5.3129 -6.0849 -3.2646 -19.7078 4.1104 -3.6880 -8.5638 2.1540 -1.9108 0.7500 -0.0000 -0.0000 0.0000 -60.6373 2.4542 10.4623 26.1917 -37.3974 -9.0038 -0.0000 0.0000 -21.7946 15.5514 35.0314 9.0761 -7.1250 0.0000 -0.0000 -22.5202 64.6686 -10.9818 -0.0000 -0.0000 0.0000 55.0051 16.4571 -0.8809 -56.9378 55.4372 -31.8060 0.0000 -0.0000 -11.3280 -39.3601 27.9322 -21.0180 7.1250 -0.0000 -0.0000 -5.1374 4.3365 -5.5327
0.00 0.00 0.00 1364.8700 -90.6004 -208.2980 0.0000 0.0000 0.0000 3.3053 -17.7311 -109.4512 6.6774 15.0541 47.6433 0.0707 4.5693 -8.6377 0.6068 -4.9860 -13.8686 0.0000 0.0000 0.0000 -21.3138 19.7773 -106.2917 -6.2227 -14.6407 45.8690 -0.0990 -4.0650 -8.8127 -1.3151 7.2637 -20.4991 0.4673 1.5120 15.8598 1.9168 2.0546 2.5828 1.3466 0.9480 -6.1901 -7.4354 -3.6725 -21.0634 4.5174 -3.9017 -8.4317 2.5164 -1.9859 1.0740 -0.0000 0.0000 0.0000 -35.7925 -21.6086 -0.6644 41.4382 -48.8993 -19.5162 -0.0000 0.0000 -27.6138 25.4301 34.0009 14.8899 -7.1250 0.0000 -0.0000 -9.8088 66.4901 -5.1027 -0.0000 0.0000 0.0000 31.4927 45.2028 -9.1376 -53.5801 54.3412 -29.0588 0.0000 -0.0000 -14.0753 -40.7950 29.5343 -23.0461 7.1250 -0.0000 -0.0000 -5.5446 6.6770 -6.1792
